PathFileType	4	(X/Y/Z)	s01c0401.trc
DataRate	CameraRate	NumFrames	NumMarkers	Units	OrigDataRate	OrigDataStartFrame	OrigNumFrames
200	200	6	48	mm	200	1500	2000
Frame#	Time	racr			lacr			c7			jug			rlel			rdr			llel			ldr			s2			lic			ric			lasi			rasi			rpsi			lpsi			rgt			lgt			rth1			rth2			rth3			rth4			rlfc			rsh1			rsh2			rsh3			rsh4			rlmal			rmmal			rcal			rtoe			rmt5			lth1			lth2			lth4			lth3			llfc			lsh1			lsh2			lsh3			lsh4			llmal			lmmal			lcal			ltoe			lmt5			SBIKE			LBIKE			RBIKE			
		X1	Y1	Z1	X2	Y2	Z2	X3	Y3	Z3	X4	Y4	Z4	X5	Y5	Z5	X6	Y6	Z6	X7	Y7	Z7	X8	Y8	Z8	X9	Y9	Z9	X10	Y10	Z10	X11	Y11	Z11	X12	Y12	Z12	X13	Y13	Z13	X14	Y14	Z14	X15	Y15	Z15	X16	Y16	Z16	X17	Y17	Z17	X18	Y18	Z18	X19	Y19	Z19	X20	Y20	Z20	X21	Y21	Z21	X22	Y22	Z22	X23	Y23	Z23	X24	Y24	Z24	X25	Y25	Z25	X26	Y26	Z26	X27	Y27	Z27	X28	Y28	Z28	X29	Y29	Z29	X30	Y30	Z30	X31	Y31	Z31	X32	Y32	Z32	X33	Y33	Z33	X34	Y34	Z34	X35	Y35	Z35	X36	Y36	Z36	X37	Y37	Z37	X38	Y38	Z38	X39	Y39	Z39	X40	Y40	Z40	X41	Y41	Z41	X42	Y42	Z42	X43	Y43	Z43	X44	Y44	Z44	X45	Y45	Z45	X46	Y46	Z46	X47	Y47	Z47	X48	Y48	Z48	
1500	7.5000	721.797058	1275.149902	-61.483238	732.086914	1228.836548	-438.278442	747.272400	1364.414062	-249.093369	704.364807	1199.723999	-241.020828	557.617249	1061.777710	59.620815	702.466736	889.546387	-26.916895	537.162109	1039.114990	-561.133240	686.257446	890.960632	-446.358215	193.938065	1236.292847	-233.902893	350.254364	1229.453369	-416.254822	354.484985	1219.693115	-86.620491	378.167480	1182.262451	-424.071533	372.334381	1172.613892	-120.652367	229.766907	1273.268799	-183.548965	227.090622	1275.987671	-288.485718	301.571075	1109.711304	-53.762371	277.100189	1091.490479	-430.161407	392.720764	1013.044312	-52.201794	450.380737	953.455750	-62.071926	506.805725	884.611572	-78.360558	486.822479	988.500061	-86.281860	531.224121	779.943359	-105.134636	427.285217	725.746948	-67.469704	355.850708	680.364746	-69.556099	276.144867	640.952454	-75.896973	378.194244	641.505493	-109.123627	160.947464	595.293579	-89.685265	193.540115	569.420776	-168.638611	119.499680	616.383179	-143.868118	219.122986	362.642578	-137.238281	149.581528	443.022614	-65.972511	305.715851	961.865662	-438.489685	355.240295	890.627563	-428.711548	400.972015	919.999023	-425.244171	395.741608	817.212952	-410.672943	435.766296	713.326477	-393.587463	378.030762	613.794556	-435.427917	354.206848	529.469299	-432.018951	326.990082	449.291290	-423.747711	405.536652	516.570984	-400.283295	281.613617	329.579407	-412.432098	315.821075	345.175507	-332.712646	229.712341	314.393585	-375.138947	479.491089	192.663986	-368.480011	376.450226	209.352310	-440.487946	-270.356842	877.925354	-266.921936	-11.961118	84.383896	-453.617584	-20.245481	81.148651	-53.761929	
1501	7.5050	720.701660	1276.249268	-59.299351	732.895935	1228.667969	-436.125488	746.872253	1364.743286	-246.761673	704.643066	1200.107178	-238.973862	556.682922	1061.461060	59.778214	702.376648	889.591003	-27.135838	537.565735	1039.764404	-560.422241	686.366211	890.872681	-446.405975	193.914856	1235.165405	-235.335922	350.346344	1228.257812	-417.017700	353.649353	1220.200684	-86.805534	377.028839	1180.124878	-423.361511	372.265076	1172.860229	-120.783318	229.479446	1272.374268	-185.115616	227.263962	1274.479858	-290.048981	302.123108	1110.899780	-53.731579	275.295837	1089.370483	-430.216400	395.714722	1016.133179	-51.758507	454.101685	957.799744	-60.783604	512.268921	890.348999	-77.269234	490.775909	993.418884	-85.755859	538.792847	786.004944	-104.630669	434.836945	732.656311	-67.136856	363.134857	687.758057	-69.438248	282.933563	649.064941	-75.896538	385.193390	648.639282	-108.825737	167.744064	603.194946	-89.806236	200.547287	577.388550	-168.834625	125.731819	624.002869	-144.231506	227.385651	371.145111	-137.255127	157.811035	451.545807	-65.890030	300.954742	959.645325	-438.789825	348.309723	887.041443	-429.002045	394.909424	915.043274	-426.023193	386.678040	812.513428	-411.200836	425.763916	707.062683	-394.161835	369.279938	607.811707	-436.097565	346.374390	523.372314	-432.413422	319.715790	442.899170	-424.149323	397.851349	510.971497	-400.987366	275.396759	322.909851	-412.218048	310.829895	340.799255	-332.613342	224.150360	309.002502	-375.141144	472.126312	183.360519	-368.490204	369.339783	201.841782	-440.700989	-270.381683	877.916443	-266.964233	-11.962048	84.377518	-453.614044	-20.243971	81.152626	-53.745285	
1502	7.5100	719.594055	1277.162598	-56.926487	733.749023	1228.490234	-433.855499	746.457214	1365.034302	-244.361618	704.846924	1200.374878	-236.702454	555.609680	1061.217041	60.053028	702.206848	889.555664	-27.454121	538.061523	1040.607056	-559.729919	686.493225	890.853882	-446.350250	193.970657	1233.987427	-236.796021	350.712219	1226.984009	-417.569458	352.764252	1220.677612	-87.055626	375.009094	1177.675781	-421.513947	372.211395	1173.104248	-120.849510	229.276230	1271.495728	-186.671082	227.498672	1272.997437	-291.656860	302.624298	1112.180664	-53.635658	273.489105	1087.436401	-430.222473	397.977753	1018.810913	-51.162838	457.926636	962.073181	-59.715073	517.615295	895.821045	-76.074753	493.636841	998.459534	-85.020996	546.293518	792.232849	-103.828827	442.451843	739.365540	-67.352959	370.403290	694.987732	-69.359123	290.061890	656.662537	-76.019760	392.356445	655.667908	-108.684692	175.019989	610.604004	-89.944992	207.824799	584.821899	-168.964050	131.932648	631.039124	-144.784332	236.208069	379.193298	-137.198868	165.437988	458.619019	-66.489105	296.346985	957.742432	-439.271606	341.539429	883.856079	-429.501923	389.039368	910.514404	-426.939575	377.785858	808.334778	-412.051605	415.817017	701.014526	-394.297729	360.085114	602.492798	-436.993164	337.579437	517.959106	-433.304840	311.760071	437.252869	-424.730743	389.333466	505.942627	-401.747223	268.775085	316.746033	-412.164124	305.556091	336.909668	-332.459717	218.115631	304.069244	-375.242798	464.147766	174.776993	-368.511200	361.686371	194.689880	-440.772827	-270.415375	877.919556	-266.935608	-11.965976	84.368904	-453.614044	-20.248598	81.151794	-53.740017	
1503	7.5150	718.385803	1278.069336	-54.381001	734.635559	1228.260986	-431.459991	745.995972	1365.210571	-241.936951	705.089600	1200.792847	-234.341003	554.662903	1060.911377	60.370258	702.065674	889.526794	-27.701742	538.751831	1041.369141	-559.084961	686.610107	890.847595	-446.295715	194.098770	1232.931519	-238.321213	351.300781	1225.580200	-417.893341	351.991119	1221.149048	-87.202278	372.340240	1174.995850	-418.793884	372.151917	1173.338501	-120.880058	229.121674	1270.675537	-188.255753	227.787872	1271.533936	-293.282288	302.990509	1113.457764	-53.607502	271.802429	1085.639771	-430.186737	399.898712	1021.270874	-50.204731	461.201843	966.020874	-58.385937	522.715759	901.118835	-74.553871	495.151093	1003.039062	-83.347862	552.765686	799.240295	-102.075432	450.073730	745.917053	-67.089272	377.807617	701.824951	-69.250694	297.387268	663.780640	-76.172180	399.747192	662.370361	-108.419975	182.449509	617.547668	-90.224419	215.580627	591.808105	-169.304581	138.939392	637.678650	-144.837448	245.452225	386.764954	-137.271317	174.085114	465.634857	-66.689743	291.887939	956.134888	-439.854767	335.151825	881.086731	-430.334015	383.368805	906.455444	-427.926086	369.252167	804.544128	-413.159332	405.344574	695.609741	-396.033051	350.497223	597.793701	-438.105469	328.387573	513.374695	-434.343842	303.166168	432.307617	-425.479675	380.371246	501.585114	-403.019623	261.770844	311.124054	-412.242126	300.023376	333.499786	-332.256256	211.628784	299.607544	-375.444580	455.756866	166.664871	-368.690338	353.583008	188.026779	-440.870972	-270.479340	877.907288	-266.964813	-11.972483	84.367989	-453.612213	-20.256924	81.148903	-53.760159	
1504	7.5200	717.091003	1278.789551	-51.721054	735.531250	1228.043579	-428.979279	745.653870	1365.367310	-239.450653	705.307495	1200.964966	-231.831329	553.712463	1060.512573	60.745869	701.893555	889.465027	-27.805664	539.649109	1042.328247	-558.569580	686.778015	890.860474	-446.182648	194.253159	1231.860474	-239.716934	352.091888	1224.010254	-418.023193	351.137695	1221.417236	-87.428818	369.254211	1172.166138	-415.466400	372.085205	1173.514648	-120.881828	228.998688	1269.677734	-189.907623	228.113480	1270.094360	-294.881836	303.087158	1114.781372	-54.272213	270.153534	1084.090820	-430.148315	401.485107	1023.513550	-49.055180	464.144592	969.816345	-57.118183	527.308289	906.491821	-72.933060	498.163361	1007.816162	-81.963234	560.040039	805.712646	-101.021072	457.529816	752.366821	-66.618881	385.295288	708.216553	-69.044090	304.742889	670.386780	-76.319572	407.230835	668.947021	-108.309120	190.069977	623.866821	-90.566154	223.527451	598.366821	-169.649948	145.821762	643.572327	-145.174469	254.919724	393.865906	-137.486633	183.021301	472.049927	-66.938004	287.594666	954.793030	-440.498962	328.890198	878.617310	-431.463013	377.817627	902.722473	-429.068573	361.119049	801.123291	-414.892822	394.462036	690.792175	-398.612701	340.559753	593.638245	-439.440063	318.596130	509.373047	-435.583801	294.046875	427.971191	-426.373688	371.011230	497.663574	-404.815552	254.448776	306.056366	-412.453857	294.255432	330.562592	-332.007355	204.724854	295.629059	-375.708252	446.934174	159.226944	-368.827972	345.051697	181.894958	-441.004150	-270.429474	877.876404	-266.965057	-11.977051	84.367928	-453.613159	-20.255783	81.151909	-53.751106	
1505	7.5250	715.797791	1279.421387	-48.996418	736.394043	1227.843628	-426.434540	745.289185	1365.444824	-236.887970	705.540833	1201.084961	-229.401688	552.846863	1060.054932	61.213749	701.734314	889.416931	-27.769894	540.557861	1043.198975	-557.949524	686.962402	890.877380	-446.008728	194.425827	1230.794800	-241.042679	353.076508	1222.264160	-417.959930	350.462402	1221.633057	-87.488029	365.983063	1169.267700	-411.796539	371.999542	1173.637695	-120.893372	228.895340	1268.854980	-191.406281	228.474625	1268.692749	-296.428345	303.104950	1115.954102	-54.187653	268.627991	1082.739380	-430.151947	402.830017	1025.577637	-47.790348	466.658752	973.542053	-55.840389	531.483215	911.811768	-71.433708	499.614502	1012.281372	-80.495613	567.916138	811.790100	-100.490799	464.857269	758.603882	-66.016510	392.750031	714.458862	-68.801155	312.196930	676.625305	-76.452858	414.858734	675.050781	-107.812981	197.796570	629.750488	-90.970627	231.645584	604.488281	-169.963409	152.801147	648.893738	-145.625549	266.057343	401.227875	-136.599518	192.266205	477.956940	-67.065369	283.449371	953.669556	-441.172668	322.908661	876.416565	-432.822449	372.615295	899.320618	-430.479797	353.381439	797.785767	-415.656342	383.984894	686.569275	-400.930634	330.316864	589.940735	-440.898560	308.597076	505.733673	-436.966980	284.566406	424.107513	-427.341370	361.426270	494.163483	-406.901398	246.769989	301.644836	-412.848297	288.275970	328.091064	-331.717468	197.440475	292.157715	-376.031067	437.743164	152.429337	-368.949463	336.141479	176.288879	-441.150635	-270.523407	877.878357	-266.910583	-11.980850	84.368706	-453.618805	-20.275419	81.155823	-53.753162	
